<svg width="135" height="36" viewBox="0 0 135 36" fill="none" xmlns="http://www.w3.org/2000/svg">
<g clip-path="url(#clip0_208_1451)">
<path d="M89.8202 0V26.1399C93.079 26.2899 96.329 26.4712 99.5701 26.6851V32.2273C94.4297 31.8881 89.2841 31.6308 84.1354 31.4554V0H89.8202ZM134.995 0.00313043L127.593 16.9842L134.993 35.881L134.985 35.8844C132.827 35.5807 130.668 35.2917 128.506 35.0176L124.35 24.4117L120.154 34.033C118.164 33.8155 116.172 33.6102 114.179 33.4174L121.396 16.8704L114.787 0.0033913H120.937L124.637 9.4427L128.751 0.00313043H134.995ZM64.6245 31.1807V0.00286957H80.4938V5.59487H70.3094V12.8418H78.0152V18.384H70.3094V31.1797L64.6245 31.1807ZM43.3971 5.59513V0.0026087H60.9801V5.59487H55.0308V31.3323C53.1332 31.3818 51.2378 31.4397 49.3464 31.5104V5.59513H43.3971ZM23.9627 33.1216V0.00365217H39.7529V5.59539H29.6468V13.17C31.9685 13.1405 35.2697 13.1074 37.3236 13.1121V18.6548C34.7527 18.6235 31.8507 18.6897 29.6468 18.7114V27.102C33.013 26.8395 36.3819 26.6117 39.7529 26.4185V31.9612C34.4834 32.262 29.2193 32.649 23.9627 33.1221V33.1216ZM12.811 20.3097L12.8108 0.0026087H18.4956V33.6443C16.4175 33.8557 14.3431 34.0808 12.2726 34.3184L5.68949 15.6063V35.1198C3.79311 35.364 1.89821 35.6193 0.00488281 35.8857V0.00313043H5.40739L12.8108 20.3097H12.811ZM104.26 32.5615V0.00313043H109.945V33.0261C108.052 32.8591 106.158 32.7052 104.26 32.5617V32.5615Z" fill="#DB202C"/>
</g>
<defs>
<clipPath id="clip0_208_1451">
<rect width="135" height="36" fill="white"/>
</clipPath>
</defs>
</svg>
